<?xml version="1.0" encoding="UTF-8"?>
<!DOCTYPE svg PUBLIC "-//W3C//DTD SVG 1.1//EN" "http://www.w3.org/Graphics/SVG/1.1/DTD/svg11.dtd">
<!-- Creator: CorelDRAW 2021.5 -->
<svg xmlns="http://www.w3.org/2000/svg" xml:space="preserve" width="1181px" height="1181px" version="1.1" style="shape-rendering:geometricPrecision; text-rendering:geometricPrecision; image-rendering:optimizeQuality; fill-rule:evenodd; clip-rule:evenodd"
viewBox="0 0 1181 1181"
 xmlns:xlink="http://www.w3.org/1999/xlink"
 xmlns:xodm="http://www.corel.com/coreldraw/odm/2003">
 <defs>
  <style type="text/css">
   <![CDATA[
    .str0 {stroke:#2B2A29;stroke-width:2.36;stroke-miterlimit:22.9256}
    .fil0 {fill:none}
    .fil1 {fill:#2B2A29}
   ]]>
  </style>
   <clipPath id="id0">
    <rect x="62.82" y="21.01" width="669.82" height="1081.15"/>
   </clipPath>
 </defs>
 <g id="Слой_x0020_1">
  <metadata id="CorelCorpID_0Corel-Layer"/>
  <g style="clip-path:url(#id0)">
   <image id="image-18-20240307-134853.png" x="62.82" y="21.01" width="669.82" height="1081.16" xlink:href="Светофор_Images\Светофор_ImgID1.png"/>
  </g>
  <path class="fil0 str0" d="M247.39 214.64c1.95,1.84 7.34,9.98 8.82,13.52 7.46,17.75 11.02,28.22 20.47,41.89 18.95,27.43 63.17,25.32 63.5,25.4 1.62,0.42 0.98,7.35 1.02,8.82 0.58,18.65 -6.63,34.25 -18.69,47.88 -14.04,15.85 -37.8,22.43 -61.79,23.62 -50.91,2.53 -86.87,-30.63 -81.7,-85.28 2.95,-31.08 13.45,-64.03 40.06,-73.39 12.89,-4.53 19.16,-11.07 28.31,-2.46z"/>
  <path class="fil1 str0" d="M256.21 228.68c-1.48,-3.64 -5.31,-10.08 -7.23,-12.01 -8.97,-8.98 -17.01,-4.03 -29.9,0.63 -26.61,9.63 -37.11,43.55 -40.06,75.56 -5.17,56.26 30.79,90.4 81.7,87.8 23.99,-1.22 47.75,-8 61.79,-24.32 12.06,-14.03 19.69,-30.11 18.69,-49.3 -0.08,-1.53 -0.48,-7.38 -1.02,-9.07 -0.13,-0.4 -29.78,-1.19 -52.19,-18.2 -3.65,-2.77 -9.49,-8.98 -12.52,-12.79 -10.55,-13.27 -11.81,-20.02 -19.26,-38.3z"/>
  <path class="fil1 str0" d="M256.21 433.91c-1.48,-3.64 -5.31,-10.09 -7.23,-12.01 -8.97,-8.98 -17.01,-4.04 -29.89,0.63 -26.62,9.63 -37.12,43.55 -40.06,75.55 -5.18,56.27 30.78,90.41 81.69,87.81 24,-1.23 47.75,-8 61.79,-24.33 12.06,-14.02 19.69,-30.11 18.69,-49.29 -0.08,-1.53 -0.48,-7.38 -1.02,-9.08 -0.12,-0.4 -29.77,-1.18 -52.19,-18.2 -3.65,-2.76 -9.49,-8.97 -12.52,-12.78 -10.55,-13.27 -11.81,-20.02 -19.26,-38.3z"/>
  <path class="fil1 str0" d="M256.21 639.13c-1.48,-3.63 -5.31,-10.08 -7.23,-12 -8.97,-8.98 -17.01,-4.04 -29.89,0.62 -26.62,9.63 -37.12,43.56 -40.06,75.56 -5.18,56.26 30.78,90.4 81.69,87.8 24,-1.22 47.75,-8 61.79,-24.32 12.06,-14.03 19.69,-30.11 18.7,-49.3 -0.08,-1.53 -0.49,-7.37 -1.03,-9.07 -0.12,-0.4 -29.77,-1.19 -52.19,-18.2 -3.64,-2.77 -9.49,-8.98 -12.52,-12.79 -10.55,-13.27 -11.8,-20.02 -19.26,-38.3z"/>
  <path class="fil0 str0" d="M469.71 373.92c10.31,-1.08 29.24,-1.09 39.37,-1.04 2.02,0.01 15.37,-0.58 22.5,-0.73 1.82,-0.03 12.94,-1.87 15.03,-3.27 16.11,-10.75 14.55,-13.05 20.48,-29.2 2.13,-5.8 9.12,-26.6 12.58,-30.63"/>
  <path class="fil1 str0" d="M509.08 372.88c-10.13,-0.05 -29.06,-0.04 -39.37,1.04 9.5,28.69 30.03,48.59 53.84,50.8 9.11,0.85 20.08,-1.25 28.63,-5.89 9.98,-5.42 17.97,-15.38 23.86,-26.55 7.4,-14.01 7.33,-35.14 7.33,-53.96 0,-10.29 -1.3,-20.15 -3.7,-29.27 -3.46,4.03 -10.45,24.83 -12.58,30.63 -5.93,16.15 -4.37,18.45 -20.48,29.2 -2.09,1.4 -13.21,3.24 -15.03,3.27 -7.13,0.15 -20.48,0.74 -22.5,0.73z"/>
  <path class="fil1 str0" d="M506.89 553.84c-10.13,-0.05 -29.05,-0.04 -39.37,1.04 9.5,28.69 29.56,47.3 53.37,49.51 9.11,0.84 19.73,-2.62 28.28,-7.26 9.98,-5.42 17.45,-13.94 23.34,-25.1 7.39,-14.02 7.46,-31.91 7.46,-50.73 0,-10.29 -0.09,-22.18 -2.49,-31.29 -3.45,4.02 -10.44,24.83 -12.57,30.63 -5.93,16.15 -4.38,18.45 -20.48,29.2 -2.1,1.4 -13.21,3.23 -15.04,3.27 -7.13,0.14 -20.48,0.74 -22.5,0.73z"/>
  <path class="fil1 str0" d="M504.7 745.93c-10.12,-0.04 -21.64,-0.68 -31.95,0.4 9.5,28.68 22.97,47.27 46.78,49.48 9.11,0.85 19.73,0.72 28.27,-3.93 9.98,-5.42 17.98,-15.38 23.87,-26.54 7.4,-14.02 7.33,-35.15 7.33,-53.97 0,-10.29 -0.12,-15.39 -2.51,-24.5 -1.2,6.07 -6.8,23.7 -10.08,28.94 -9.86,15.79 -3,13.74 -21.09,26.53 -2.06,1.46 -16.29,2.83 -18.12,2.86 -7.13,0.15 -20.48,0.74 -22.5,0.73z"/>
 </g>
</svg>
